<?xml version="1.0" standalone="no"?>
<!DOCTYPE svg PUBLIC "-//W3C//DTD SVG 20010904//EN"
 "http://www.w3.org/TR/2001/REC-SVG-20010904/DTD/svg10.dtd">
<svg version="1.0" xmlns="http://www.w3.org/2000/svg"
 width="603.000000pt" height="414.000000pt" viewBox="0 0 603.000000 414.000000"
 preserveAspectRatio="xMidYMid meet">

<g transform="translate(0.000000,414.000000) scale(0.100000,-0.100000)"
fill="#000000" stroke="none">
<path d="M4914 3686 c-9 -7 -15 -19 -11 -27 3 -8 26 -63 51 -124 l46 -109 0
-231 c0 -237 3 -255 40 -255 13 0 15 -9 10 -52 l-5 -53 -49 -12 c-56 -14 -67
-9 -86 37 -7 17 -19 30 -27 30 -11 0 -69 -25 -81 -35 -2 -2 4 -18 13 -35 22
-42 13 -70 -31 -98 -33 -22 -37 -22 -60 -7 -29 18 -31 35 -5 35 16 0 19 11 24
83 4 45 7 100 7 123 0 36 3 40 23 40 21 -1 22 2 25 101 3 97 2 103 -20 117
-13 8 -34 16 -48 18 -20 2 -26 -2 -28 -22 -6 -41 -22 -48 -23 -9 l-1 34 -13
-35 -12 -35 -8 38 c-6 30 -11 37 -26 32 -11 -3 -28 -8 -40 -11 -29 -8 -39 -43
-39 -133 0 -82 12 -107 44 -95 14 5 16 -8 16 -120 l0 -126 25 0 c30 0 32 -11
5 -35 -27 -25 -25 -40 10 -65 36 -25 37 -41 8 -83 -29 -43 -37 -47 -65 -36
-45 17 -61 11 -73 -26 -15 -46 -8 -62 32 -73 29 -7 33 -13 36 -43 5 -56 -12
-89 -46 -89 -24 0 -28 -4 -30 -30 -3 -41 14 -70 41 -70 33 0 42 -10 57 -64 13
-48 13 -50 -12 -70 -24 -19 -32 -40 -29 -74 0 -7 6 -10 11 -7 9 6 14 -8 11
-27 -2 -12 6 -10 50 12 l39 21 35 -38 c40 -44 43 -60 15 -96 -26 -33 -25 -38
12 -64 28 -20 32 -28 35 -79 6 -97 29 -222 47 -249 9 -14 45 -46 79 -71 l62
-46 5 -362 c4 -287 8 -366 19 -379 15 -18 67 -22 91 -7 16 10 28 114 29 264 1
49 3 87 6 84 3 -2 9 -78 13 -168 10 -176 15 -190 70 -190 61 0 58 -16 66 387
l6 368 33 25 c17 14 53 45 80 70 47 45 47 45 62 145 8 55 15 119 15 143 0 23
3 42 8 42 4 0 21 11 37 24 l30 24 -22 31 c-31 41 -29 61 10 99 36 35 52 39 81
17 29 -22 42 -18 65 19 28 45 27 50 -15 72 -31 17 -35 23 -31 49 3 17 10 42
16 58 10 24 15 27 61 27 l50 0 0 40 c0 22 0 43 1 48 0 4 -20 11 -45 16 l-45 9
-7 54 c-7 61 -5 66 49 83 20 6 37 12 37 13 0 1 -7 20 -14 42 l-15 40 -53 -3
c-53 -3 -54 -2 -76 36 -29 52 -28 62 9 96 l30 29 -27 28 -26 27 23 4 c23 3 24
7 30 123 4 66 7 123 8 126 0 3 11 5 24 5 21 -1 22 3 25 99 3 92 1 101 -19 118
-12 9 -33 17 -48 17 -23 0 -29 -6 -38 -37 l-10 -38 -2 33 c-1 39 -20 34 -22
-6 -1 -23 -2 -22 -11 11 -8 30 -15 37 -35 37 -58 0 -63 -11 -63 -130 0 -103 1
-110 20 -110 11 0 21 6 22 13 1 6 5 -49 8 -123 5 -129 6 -134 28 -140 l23 -5
-21 -17 c-27 -23 -33 -23 -80 8 -44 29 -47 39 -26 89 15 34 14 35 -12 49 -61
31 -67 29 -87 -15 l-19 -41 -50 6 c-27 3 -53 9 -57 13 -3 5 -9 29 -11 55 -5
42 -3 47 16 50 21 3 21 8 26 248 l5 245 48 109 c52 121 56 141 27 149 -27 7
-42 -10 -76 -87 -15 -35 -35 -67 -45 -69 -11 -3 -19 -19 -24 -46 -9 -53 -25
-53 -25 1 0 50 -17 41 -22 -12 l-4 -35 -13 48 c-8 27 -19 47 -27 47 -8 0 -29
33 -48 74 -36 77 -53 93 -82 72z m209 -736 c6 -12 1 -16 -23 -18 -27 -2 -29 0
-20 20 5 13 12 68 17 123 l8 100 5 -105 c3 -58 9 -112 13 -120z m-448 -188
c-13 -13 -16 12 -8 75 l8 68 3 -69 c2 -37 0 -71 -3 -74z m875 68 c0 -40 -4
-70 -10 -70 -5 0 -10 15 -10 33 0 37 11 107 16 107 2 0 4 -31 4 -70z m-295
-206 c27 -13 64 -35 80 -48 l30 -25 -42 -42 -41 -42 -35 22 c-19 11 -38 21
-43 21 -5 0 6 -9 24 -20 17 -11 32 -23 32 -28 0 -17 -59 -64 -72 -57 -7 3 -5
0 5 -8 10 -9 18 -19 19 -24 0 -11 27 -60 28 -51 0 4 -5 19 -12 34 -12 25 -10
29 22 55 32 27 35 28 53 11 19 -16 19 -16 6 5 -13 21 -11 26 29 65 42 42 43
43 59 23 8 -11 27 -45 41 -75 22 -46 26 -69 26 -140 0 -56 -6 -98 -17 -123
l-16 -37 -56 27 c-40 20 -54 32 -50 43 4 8 8 29 11 45 l4 30 -11 -30 c-6 -16
-12 -36 -15 -43 -3 -10 -8 -10 -26 2 -13 7 -34 17 -48 21 -20 6 -18 2 13 -21
20 -15 37 -31 37 -35 0 -13 -48 -58 -80 -74 -17 -9 -30 -18 -30 -20 0 -13 81
38 101 63 l24 29 58 -29 58 -29 -20 -27 c-70 -97 -206 -158 -325 -144 -39 5
-39 7 -14 90 8 28 14 32 46 32 20 0 44 5 52 10 10 6 -2 7 -38 3 l-52 -6 6 34
c4 19 7 36 8 39 0 3 -3 7 -9 8 -5 2 -14 -12 -19 -32 -7 -31 -11 -36 -28 -30
-14 4 -18 2 -14 -5 4 -6 13 -11 20 -11 10 0 10 -11 -2 -57 -8 -32 -16 -60 -17
-61 -6 -7 -99 39 -132 64 -57 44 -123 162 -123 222 0 20 5 22 60 22 l59 0 7
-34 c6 -36 61 -108 95 -127 11 -5 0 10 -25 34 -44 44 -75 112 -60 127 5 5 28
10 52 11 23 2 42 8 42 13 0 7 -19 10 -50 8 -45 -4 -50 -2 -50 17 0 37 29 94
68 134 20 20 40 37 45 37 9 0 42 -70 39 -82 -2 -9 2 -10 20 -3 10 4 2 29 -34
102 -26 54 -48 103 -48 110 0 46 182 52 275 7z m-280 -60 l26 -56 -44 -44
c-49 -48 -77 -98 -77 -138 0 -21 -5 -26 -37 -31 -97 -15 -93 -18 -82 62 13 93
68 181 149 238 19 13 36 24 37 25 1 0 13 -25 28 -56z m-76 -754 l44 -20 -7
-48 -6 -48 45 -12 c41 -11 45 -15 45 -43 0 -47 29 -88 67 -95 66 -12 113 28
113 96 0 27 5 31 44 41 l44 11 -2 50 -1 51 49 20 49 21 25 -30 26 -29 -32 -3
c-37 -4 -62 -34 -62 -75 0 -48 -30 -150 -48 -164 -11 -8 -34 -10 -67 -6 l-51
5 -19 -73 -19 -74 -8 55 c-5 30 -9 63 -10 73 -7 53 -28 -13 -28 -86 0 -54 -14
-38 -32 38 l-15 60 -55 0 c-30 0 -61 5 -69 12 -16 13 -33 75 -44 153 -7 56
-23 77 -59 82 l-28 3 22 28 c25 32 32 33 89 7z m272 -61 c11 -19 6 -21 -29 -8
-23 8 -41 8 -64 0 -38 -13 -50 -5 -23 16 24 18 103 12 116 -8z"/>
<path d="M5050 2520 c-13 -9 -13 -10 0 -10 8 0 22 5 30 10 13 9 13 10 0 10 -8
0 -22 -5 -30 -10z"/>
<path d="M5145 2520 c28 -12 37 -12 30 0 -3 6 -16 10 -28 9 -21 0 -21 -1 -2
-9z"/>
<path d="M5108 2423 c7 -3 16 -2 19 1 4 3 -2 6 -13 5 -11 0 -14 -3 -6 -6z"/>
<path d="M5004 2365 c-9 -14 -15 -27 -13 -30 3 -2 12 10 21 26 21 36 15 39 -8
4z"/>
<path d="M5326 2353 c9 -38 14 -42 14 -10 0 14 -5 29 -10 32 -7 4 -8 -3 -4
-22z"/>
<path d="M4990 2261 c0 -6 4 -13 10 -16 6 -3 7 1 4 9 -7 18 -14 21 -14 7z"/>
<path d="M5115 2180 c-28 -7 -28 -8 -5 -9 14 0 32 4 40 9 17 11 8 11 -35 0z"/>
<path d="M5057 3672 c-21 -23 -22 -71 -1 -100 18 -26 75 -30 94 -7 21 25 18
95 -5 111 -26 20 -69 18 -88 -4z"/>
<path d="M5502 3368 c-19 -19 -14 -73 8 -93 47 -42 110 28 74 82 -16 25 -62
31 -82 11z"/>
<path d="M4632 3358 c-19 -19 -14 -73 8 -93 36 -33 90 2 90 60 0 37 -70 61
-98 33z"/>
<path d="M3770 3080 c-18 -18 -21 -29 -16 -59 6 -41 28 -61 67 -61 35 0 54 24
54 71 0 45 -9 56 -52 65 -24 5 -36 1 -53 -16z"/>
<path d="M1853 2995 c-17 -12 -23 -26 -23 -56 0 -52 12 -73 49 -89 41 -16 79
-6 91 26 14 36 12 86 -5 107 -19 26 -84 33 -112 12z"/>
<path d="M2482 2994 c-18 -12 -22 -25 -22 -65 0 -83 58 -116 116 -66 35 30 41
110 10 133 -26 19 -76 18 -104 -2z"/>
<path d="M3718 2930 c-10 -6 -29 -31 -44 -55 -22 -38 -25 -54 -22 -107 3 -59
2 -63 -19 -66 -27 -4 -31 -21 -5 -24 27 -2 55 -5 77 -7 19 -2 19 -2 2 -12 -13
-7 -27 -7 -49 0 -45 16 -48 14 -48 -24 l0 -35 55 0 55 0 0 -35 c0 -19 -5 -65
-12 -103 -11 -64 -13 -68 -35 -64 -47 9 -70 -42 -36 -80 15 -17 15 -20 -4 -41
-11 -12 -26 -32 -32 -44 -10 -20 -15 -21 -36 -11 -21 9 -28 8 -45 -7 -27 -25
-25 -50 6 -72 23 -17 25 -23 18 -71 -6 -46 -9 -52 -30 -52 -23 0 -54 -24 -54
-41 0 -27 22 -49 50 -49 26 0 29 -4 39 -50 14 -67 14 -68 -8 -75 -25 -8 -33
-29 -20 -61 8 -24 14 -26 47 -22 35 5 41 2 70 -33 27 -32 31 -42 22 -58 -30
-57 33 -113 70 -61 13 19 15 19 62 -8 35 -19 48 -33 47 -47 -3 -41 2 -54 21
-60 31 -10 57 3 64 32 6 22 11 25 38 19 17 -3 43 -6 58 -6 23 0 29 -5 34 -30
4 -25 10 -30 34 -30 35 0 52 16 52 51 0 22 7 29 43 43 54 20 55 20 76 -6 37
-45 100 7 72 60 -8 16 -4 25 27 55 36 35 40 36 69 25 25 -9 35 -9 47 1 22 18
20 59 -3 79 -20 17 -20 18 0 68 18 47 21 50 49 46 24 -3 32 0 42 23 15 32 2
57 -33 65 -21 5 -24 12 -27 63 -2 45 0 57 12 57 20 0 46 28 46 48 0 31 -17 45
-53 44 -31 -1 -36 2 -58 49 -22 47 -22 52 -6 60 21 12 22 52 1 73 -20 20 -34
20 -62 0 -20 -13 -24 -14 -37 0 -8 8 -26 23 -40 34 -23 18 -24 23 -13 47 11
24 10 29 -11 46 -31 25 -46 24 -68 -6 -17 -24 -19 -24 -68 -12 -41 11 -51 18
-53 38 -5 33 -20 49 -46 49 -28 0 -46 -18 -46 -47 0 -18 -6 -23 -25 -23 -14 0
-25 1 -25 3 0 1 7 38 15 82 l14 80 -34 30 c-34 29 -35 32 -35 100 l0 70 19
-24 19 -25 47 18 c48 19 65 40 47 58 -7 7 -20 7 -41 0 -28 -10 -31 -8 -50 24
-19 32 -54 54 -86 54 -8 0 -16 -19 -20 -47 l-8 -48 -8 44 c-11 59 -15 60 -24
4 l-8 -48 -11 45 c-13 48 -34 60 -68 40z m2 -160 c0 -33 -3 -60 -7 -60 -5 0
-6 27 -5 60 5 77 12 77 12 0z m138 -140 c28 -17 32 -25 32 -64 0 -63 -7 -78
-30 -64 -14 9 -25 9 -45 0 -25 -11 -27 -11 -21 5 4 10 10 46 13 80 3 35 9 63
12 63 3 0 21 -9 39 -20z m-61 -204 c-10 -26 -25 -18 -19 10 3 17 8 22 15 15 5
-5 7 -17 4 -25z m349 -53 c188 -63 305 -254 274 -448 -53 -331 -468 -458 -695
-213 -108 117 -141 259 -91 401 44 122 139 219 256 260 61 21 193 21 256 0z"/>
<path d="M3955 2351 c-113 -20 -213 -99 -268 -211 -29 -58 -32 -73 -32 -155 1
-81 4 -97 33 -157 39 -78 100 -139 180 -176 49 -23 70 -27 152 -27 81 0 103 4
150 26 61 29 135 94 168 150 12 20 29 64 38 99 64 251 -165 497 -421 451z m63
-213 c10 -10 14 -10 21 0 9 15 37 7 45 -14 3 -7 12 -11 20 -8 11 4 19 -3 26
-21 5 -14 14 -24 19 -21 12 8 22 -20 15 -39 -4 -8 -1 -15 5 -15 10 0 10 -41 2
-102 -1 -5 -7 -8 -15 -8 -8 0 -16 -10 -18 -22 -2 -13 -11 -24 -23 -27 -11 -2
-25 -10 -31 -19 -7 -10 -18 -13 -29 -8 -11 4 -22 1 -26 -6 -7 -10 -12 -11 -29
0 -11 6 -31 12 -45 12 -14 0 -25 6 -25 13 0 7 -10 17 -22 22 -13 6 -23 18 -23
28 0 10 -5 21 -11 25 -14 9 -16 112 -3 112 5 0 9 8 7 17 -2 11 6 22 19 28 12
5 24 18 27 28 3 14 11 18 26 14 13 -3 23 0 27 9 6 17 25 18 41 2z"/>
<path d="M3992 2024 c-26 -18 -28 -46 -6 -68 20 -20 48 -20 68 0 21 21 20 40
-4 64 -24 24 -29 24 -58 4z"/>
<path d="M1805 2803 c-16 -9 -33 -21 -37 -27 -9 -13 -11 -258 -2 -280 3 -9 12
-16 20 -16 11 0 14 -30 14 -164 0 -170 2 -179 44 -187 18 -4 17 -5 -2 -29
l-21 -25 26 -27 c25 -26 25 -27 8 -62 -18 -38 -28 -42 -69 -27 -22 9 -26 7
-35 -21 -16 -44 -15 -46 24 -62 32 -14 34 -18 29 -48 -9 -54 -12 -58 -44 -58
-28 0 -30 -2 -30 -39 0 -40 0 -40 42 -43 38 -3 42 -6 55 -43 14 -42 12 -47
-36 -74 -11 -7 -11 -14 5 -40 21 -36 26 -37 60 -15 24 16 26 16 54 -11 34 -33
37 -51 13 -78 -17 -18 -17 -20 10 -43 35 -30 41 -30 62 2 14 22 22 25 47 20
47 -9 60 -25 53 -62 -5 -31 -4 -33 32 -43 43 -12 43 -12 52 31 6 31 9 33 54
36 46 3 47 2 53 -28 8 -38 14 -42 54 -33 31 6 32 7 26 44 -6 37 -5 39 34 59
l39 20 25 -27 c25 -27 25 -27 58 -9 27 14 38 16 62 7 28 -11 29 -13 22 -68 -4
-31 -8 -59 -10 -61 -3 -2 -23 -6 -45 -9 -23 -3 -43 -8 -45 -12 -2 -3 -1 -26 3
-51 l6 -45 42 3 c37 3 43 0 56 -25 8 -15 17 -40 21 -55 6 -27 -6 -42 -59 -73
-16 -10 -17 -13 -2 -40 32 -59 31 -59 76 -36 l42 22 34 -37 c40 -42 43 -61 15
-97 -25 -32 -25 -33 8 -62 36 -32 50 -31 82 7 l27 32 44 -19 c55 -25 59 -30
52 -81 -6 -47 -4 -49 53 -58 l41 -7 9 43 9 43 53 3 c61 4 82 -8 82 -47 0 -45
10 -51 63 -38 26 5 47 13 47 16 0 3 -4 22 -10 40 -12 43 -3 54 57 77 l45 18
32 -39 33 -39 36 28 c21 16 37 31 37 35 0 3 -9 17 -20 31 -27 35 -25 51 14 96
l35 39 40 -23 c22 -12 42 -22 45 -22 3 0 17 19 32 41 28 45 28 44 -29 75 -31
17 -31 30 -1 102 13 32 15 34 61 30 l48 -3 3 53 3 52 -41 0 c-34 0 -42 4 -50
26 -14 35 -12 90 3 101 6 6 25 13 41 17 27 7 28 9 22 49 -4 23 -11 46 -15 50
-5 5 -27 3 -50 -3 -23 -6 -45 -8 -50 -5 -5 3 -19 26 -31 51 l-22 45 33 35 33
34 -23 24 c-13 14 -29 22 -37 19 -8 -3 -14 -1 -14 5 0 6 6 13 13 15 9 4 9 6 0
6 -7 1 -24 -10 -39 -24 -34 -32 -47 -31 -91 2 -30 23 -34 31 -29 57 13 65 12
70 -24 88 -19 9 -38 17 -41 18 -3 0 -14 -18 -24 -40 -16 -34 -23 -41 -44 -38
-22 3 -27 10 -34 48 -4 25 -10 74 -12 110 -3 47 -2 54 3 25 10 -51 19 -65 42
-65 28 0 32 29 25 150 -9 126 -19 143 -87 144 -41 1 -42 1 -53 -44 l-11 -45
-8 48 c-9 56 -26 53 -26 -4 0 -51 -15 -43 -24 12 l-7 42 -46 -6 c-76 -8 -84
-26 -81 -171 l3 -121 25 0 c22 0 26 5 31 45 l6 45 1 -47 c1 -25 -3 -69 -9 -96
-8 -31 -9 -83 -4 -146 7 -104 13 -114 60 -102 21 5 24 12 27 59 6 99 23 49 26
-75 2 -101 5 -125 19 -135 9 -7 24 -13 32 -12 9 0 4 5 -11 11 l-28 10 0 129
c0 84 4 128 10 124 6 -3 10 -22 10 -41 0 -47 16 -74 43 -74 33 0 47 19 47 62
0 42 2 43 31 27 12 -6 18 -17 15 -25 -3 -8 -1 -14 3 -14 5 0 11 6 14 13 5 15
59 -11 109 -53 l33 -28 -22 -24 c-13 -13 -23 -28 -23 -33 0 -5 9 1 20 13 22
23 50 29 50 11 0 -5 6 -7 13 -3 6 4 9 4 5 0 -4 -5 4 -26 18 -48 14 -22 28 -55
31 -74 3 -19 9 -34 13 -34 8 0 20 -60 25 -131 l4 -46 -32 3 -32 2 26 -11 c26
-12 26 -13 14 -59 -6 -26 -10 -50 -7 -53 3 -3 0 -5 -6 -5 -7 0 -12 -6 -12 -14
0 -20 -26 -40 -35 -26 -3 6 -11 8 -16 5 -5 -4 -9 -2 -9 4 0 6 -14 18 -31 27
-20 10 -30 11 -27 4 2 -6 8 -12 13 -13 6 -1 17 -7 25 -14 8 -7 24 -19 34 -26
19 -14 18 -16 -20 -65 -47 -61 -72 -75 -99 -56 -10 8 -15 14 -9 14 5 0 2 6 -7
13 -9 7 -18 19 -22 27 -4 12 -6 12 -6 -2 -1 -9 7 -22 17 -27 9 -6 13 -11 8
-11 -5 0 -1 -9 9 -20 16 -18 16 -20 1 -35 -9 -9 -16 -14 -16 -11 0 4 -17 -2
-37 -12 -60 -30 -93 -36 -93 -15 0 14 -3 13 -21 -6 -19 -20 -28 -22 -93 -18
-66 4 -71 6 -69 26 2 11 -2 21 -7 21 -6 0 -10 -7 -10 -16 0 -16 -8 -16 -60 -3
-8 2 -34 17 -58 32 -35 24 -42 32 -36 50 6 20 5 20 -10 7 -16 -12 -22 -9 -65
36 -51 53 -56 69 -28 89 10 7 14 16 8 19 -5 4 -12 2 -16 -4 -21 -33 -55 19
-69 106 -7 40 -7 40 31 52 l38 11 -38 -4 c-49 -5 -52 4 -35 96 11 59 17 74 31
73 20 -2 23 12 5 19 -15 5 50 137 68 137 6 0 23 -9 37 -20 36 -29 47 -25 14 5
-15 14 -27 30 -27 35 0 4 14 20 31 34 65 55 119 69 119 31 0 -9 5 -13 11 -9 8
4 8 9 0 17 -17 17 -13 34 9 40 29 7 29 82 1 90 -11 3 -27 21 -35 41 -17 40
-26 43 -76 17 -37 -19 -38 -19 -18 -70 13 -32 12 -34 -22 -62 -43 -36 -57 -36
-97 1 -23 21 -33 39 -33 59 0 26 -4 31 -34 36 -35 7 -46 24 -46 73 0 17 8 26
31 34 28 10 30 14 25 42 -9 42 -18 49 -51 36 -32 -12 -48 -3 -71 42 -13 25
-13 29 7 49 12 12 19 29 16 39 -3 14 1 20 17 22 20 3 21 10 27 123 4 66 7 144
8 173 1 37 5 52 15 52 8 0 16 17 20 46 10 74 7 223 -5 246 -11 21 -74 52 -88
44 -5 -3 -11 -25 -15 -48 -5 -32 -9 -39 -16 -28 -5 8 -10 30 -10 48 0 20 -4
31 -10 27 -5 -3 -10 -18 -10 -33 0 -49 -17 -58 -25 -13 -4 22 -11 44 -17 47
-5 3 -29 -15 -51 -41 -23 -27 -63 -70 -89 -98 l-47 -49 -63 5 c-35 3 -55 4
-45 1 23 -7 22 -34 -2 -34 -12 0 -21 -8 -24 -22 -2 -13 -3 -7 -1 12 3 32 0 36
-36 52 -30 12 -45 28 -67 69 -27 50 -76 109 -93 109 -4 0 -14 -24 -22 -52
l-16 -53 -1 40 c-2 67 -18 75 -28 14 l-9 -54 -13 53 c-14 56 -20 60 -66 35z
m625 -368 l1 -205 -26 10 c-39 15 -45 13 -56 -20 -9 -24 -17 -30 -41 -30 -48
0 -68 16 -68 55 0 30 -3 35 -24 35 -43 0 -56 -10 -56 -45 0 -39 -2 -41 -51
-50 -34 -6 -38 -5 -50 25 -10 21 -19 30 -31 26 -17 -4 -18 10 -18 191 l0 194
28 -19 c15 -10 43 -25 62 -32 19 -8 37 -17 40 -20 5 -7 112 -30 137 -30 7 0
13 6 13 13 0 8 22 28 49 45 26 17 54 38 61 47 7 8 16 15 20 15 5 0 9 -92 10
-205z m-475 -305 l30 -6 -28 -18 c-27 -19 -28 -18 -51 3 -20 19 -22 27 -15 64
4 23 9 74 10 112 2 68 2 67 13 -40 l11 -110 30 -5z m562 2 c-20 -20 -28 -22
-43 -13 -18 10 -18 10 3 11 31 0 43 28 43 102 0 108 15 123 18 19 3 -89 1 -96
-21 -119z m-90 26 c-3 -8 -6 -5 -6 6 -1 11 2 17 5 13 3 -3 4 -12 1 -19z m-232
-50 c3 -18 5 -60 3 -93 l-3 -59 -38 -9 c-25 -6 -50 -23 -75 -52 l-37 -42 -75
25 c-41 13 -77 26 -80 29 -2 2 6 24 19 49 48 90 172 175 268 183 7 1 15 -14
18 -31z m178 -4 c62 -29 123 -85 155 -143 l23 -40 -28 -14 c-15 -8 -52 -22
-82 -32 -50 -16 -54 -16 -63 -1 -23 42 -99 89 -115 72 -3 -3 6 -8 21 -12 36
-9 94 -76 102 -119 18 -95 -67 -195 -166 -195 -116 0 -206 131 -156 228 29 55
101 101 163 103 17 1 21 3 11 6 -15 4 -18 16 -18 62 0 32 -3 73 -7 91 l-6 33
56 -7 c31 -3 81 -18 110 -32z m200 -318 c0 -61 -5 -93 -22 -129 -26 -60 -80
-137 -95 -136 -6 0 -35 30 -65 65 l-53 65 20 22 c32 36 42 63 42 115 l0 49 78
30 c93 36 95 34 95 -81z m-606 72 l73 -23 0 -50 c0 -48 24 -105 55 -130 10 -8
0 -27 -40 -82 l-53 -73 -42 46 c-63 68 -92 143 -93 235 -1 71 5 99 21 99 4 0
40 -10 79 -22z m1160 -125 c-3 -10 -5 -2 -5 17 0 19 2 27 5 18 2 -10 2 -26 0
-35z m-453 -19 c13 -5 12 -10 -6 -35 l-22 -29 33 -34 32 -33 -28 -47 c-24 -41
-31 -46 -53 -41 -77 19 -78 19 -85 -15 -6 -30 -8 -31 -23 -16 -15 14 -13 19
17 50 33 34 35 35 63 20 34 -18 41 -14 59 28 10 24 10 33 1 36 -6 2 -21 11
-32 20 -17 15 -19 22 -10 51 5 19 15 38 22 43 16 9 13 9 32 2z m-295 -141 c28
-34 51 -66 51 -70 0 -13 -38 -33 -98 -54 -91 -32 -206 -22 -279 22 l-31 20 46
69 c42 62 50 70 72 64 63 -15 119 -15 146 0 16 8 32 14 35 13 3 -1 29 -30 58
-64z"/>
<path d="M1224 2715 c-20 -30 -14 -99 10 -123 20 -21 82 -20 102 0 9 9 18 36
21 61 7 58 -18 87 -77 87 -31 0 -43 -5 -56 -25z"/>
<path d="M1164 2539 c-58 -17 -61 -27 -56 -226 l2 -103 28 -2 c15 0 5 -4 -22
-7 -52 -6 -73 -26 -34 -34 l23 -4 -22 -2 c-19 -1 -23 -7 -23 -31 0 -30 0 -30
60 -30 l59 0 3 -112 c3 -101 5 -114 23 -123 17 -8 19 -18 17 -57 -3 -51 1 -47
-75 -63 -29 -6 -40 3 -56 43 -8 17 -19 32 -26 32 -16 0 -85 -29 -85 -35 0 -2
7 -23 17 -46 16 -41 16 -42 -8 -60 -57 -43 -67 -45 -97 -16 -36 35 -45 34 -81
-5 l-30 -33 29 -30 c36 -38 37 -45 5 -95 -29 -46 -29 -46 -81 -24 -24 10 -54
14 -81 11 -36 -4 -45 -1 -70 25 -15 16 -40 36 -54 43 l-26 14 -13 -57 c-19
-88 -27 -91 -34 -13 -10 103 -24 95 -42 -24 l-7 -50 -18 68 c-9 38 -20 71 -22
74 -11 10 -115 -45 -127 -67 -20 -38 7 -206 36 -217 12 -4 14 -56 14 -329 0
-311 1 -325 20 -344 25 -25 61 -26 89 -2 18 15 21 33 29 167 l8 150 7 -90 c18
-227 18 -228 54 -239 25 -7 38 -5 58 8 l25 16 0 330 c0 306 4 354 25 319 4 -5
19 -15 33 -20 19 -7 23 -12 14 -18 -9 -5 -12 -24 -10 -52 l3 -44 50 -5 c48 -5
50 -6 61 -45 19 -61 17 -70 -21 -91 -19 -10 -35 -24 -35 -31 0 -10 38 -83 44
-83 1 0 19 9 41 20 l39 20 29 -28 c49 -46 52 -59 23 -100 l-26 -37 32 -27 c42
-35 51 -35 81 3 28 36 46 35 105 -1 25 -15 32 -26 27 -38 -25 -66 -22 -72 51
-87 30 -6 33 -4 46 37 13 40 18 43 53 46 55 5 85 -5 85 -28 0 -10 4 -30 9 -43
9 -24 12 -24 56 -14 l47 11 -5 42 c-6 53 -1 60 51 78 47 17 68 13 77 -14 12
-39 31 -43 74 -15 23 14 41 28 41 31 0 3 -8 18 -18 32 -10 15 -22 32 -26 39
-7 13 59 93 78 93 6 0 22 -9 36 -20 35 -27 45 -25 69 16 28 47 27 51 -15 76
-32 19 -35 25 -30 51 3 16 12 41 19 56 11 22 19 26 57 26 43 0 44 1 53 38 12
51 4 67 -36 67 -46 0 -57 15 -57 77 l0 52 40 12 c43 13 47 23 28 76 -13 36
-18 37 -63 25 -41 -12 -52 -6 -75 39 -26 50 -26 53 12 88 l31 29 -29 35 c-35
43 -44 44 -74 12 -31 -33 -49 -32 -96 9 l-39 34 18 36 c20 44 17 51 -30 71
-42 18 -49 14 -68 -32 -15 -35 -15 -35 -62 -28 -63 9 -73 19 -73 70 0 37 3 44
23 49 23 5 24 12 30 103 4 54 8 141 8 193 1 52 4 85 6 73 3 -18 11 -23 34 -23
l29 0 0 150 c0 144 -1 150 -22 164 -13 8 -41 18 -64 22 l-41 6 -15 -53 -15
-54 -7 55 c-8 62 -25 53 -27 -15 l-1 -40 -17 53 c-17 56 -24 59 -87 41z m139
-651 c3 -23 0 -28 -17 -28 -20 0 -21 3 -14 92 3 51 7 109 8 128 2 19 6 -10 11
-65 4 -55 10 -112 12 -127z m80 -214 c122 -31 214 -96 280 -197 174 -265 31
-622 -279 -701 -78 -20 -140 -20 -218 0 -163 42 -286 160 -336 323 -103 331
216 663 553 575z m-639 -327 c7 -11 7 -20 0 -27 -6 -6 -22 0 -47 21 -20 17
-37 34 -37 39 0 14 73 -15 84 -33z"/>
<path d="M1165 1631 c-81 -23 -119 -45 -176 -98 -57 -53 -90 -106 -118 -191
-95 -281 172 -586 468 -533 96 17 159 50 230 119 165 161 172 408 16 580 -58
64 -116 99 -204 124 -80 22 -138 22 -216 -1z m195 -240 c89 -47 123 -150 82
-243 -29 -67 -80 -101 -156 -106 -72 -4 -114 15 -161 72 -27 34 -30 44 -30
111 0 67 3 77 30 111 41 50 89 74 150 74 30 0 64 -8 85 -19z"/>
<path d="M1237 1262 c-22 -24 -21 -55 1 -75 37 -34 92 -11 92 38 0 50 -60 73
-93 37z"/>
<path d="M3125 2382 c-37 -7 -55 -33 -55 -76 0 -58 22 -86 68 -86 43 0 55 7
71 37 36 69 -11 139 -84 125z"/>
<path d="M355 1805 c-20 -19 -25 -34 -25 -75 0 -91 37 -130 126 -130 39 0 47
4 64 33 14 22 20 50 20 89 0 51 -3 59 -31 82 -43 36 -119 37 -154 1z"/>
<path d="M3292 1625 c4 -4 3 -14 -3 -22 -7 -8 -8 -13 -1 -13 15 0 23 28 9 36
-7 4 -9 4 -5 -1z"/>
<path d="M2987 1604 c-3 -3 3 -21 14 -40 10 -19 18 -37 18 -40 0 -3 2 -8 5
-11 3 -4 6 1 6 10 0 9 -5 19 -10 22 -6 4 -8 10 -5 15 3 5 -1 15 -9 23 -8 8
-12 17 -9 21 4 3 4 6 1 6 -2 0 -7 -3 -11 -6z"/>
<path d="M3266 1564 c-8 -22 -8 -24 6 -24 6 0 8 3 5 7 -4 3 -2 12 4 20 7 8 8
13 1 13 -5 0 -13 -7 -16 -16z"/>
<path d="M3245 1521 c-3 -5 0 -13 6 -17 7 -4 9 -3 5 4 -3 5 0 13 6 15 9 4 10
6 1 6 -6 1 -14 -3 -18 -8z"/>
<path d="M2880 1491 c0 -11 49 -55 55 -50 2 3 -9 17 -25 31 -17 14 -30 23 -30
19z"/>
<path d="M3388 1489 c-24 -14 -84 -69 -75 -69 4 0 17 9 29 19 13 11 34 29 48
40 27 22 26 27 -2 10z"/>
<path d="M3095 1440 c-13 -6 -15 -9 -5 -9 8 0 22 4 30 9 18 12 2 12 -25 0z"/>
<path d="M3210 1434 c0 -8 5 -12 10 -9 6 4 8 11 5 16 -9 14 -15 11 -15 -7z"/>
<path d="M2973 1412 c15 -16 24 -32 20 -37 -5 -4 -2 -5 5 -1 11 6 7 15 -14 37
-15 16 -30 29 -33 29 -2 0 7 -13 22 -28z"/>
<path d="M3240 1411 c0 -5 7 -12 16 -15 14 -5 15 -4 4 9 -14 17 -20 19 -20 6z"/>
<path d="M3285 1400 c-3 -5 -1 -10 4 -10 6 0 11 5 11 10 0 6 -2 10 -4 10 -3 0
-8 -4 -11 -10z"/>
<path d="M2756 1391 c-3 -5 13 -13 35 -19 27 -7 38 -7 32 -1 -6 6 -17 11 -24
12 -8 2 -19 6 -26 10 -6 4 -14 3 -17 -2z"/>
<path d="M3478 1371 c-27 -8 -48 -18 -48 -23 0 -10 14 -10 24 0 4 4 11 7 14 8
23 2 73 17 76 23 7 11 -12 9 -66 -8z"/>
<path d="M2840 1358 c0 -6 3 -8 7 -5 3 4 12 2 19 -4 8 -7 14 -6 20 2 4 7 3 9
-4 5 -6 -3 -13 -2 -17 4 -8 14 -25 13 -25 -2z"/>
<path d="M3395 1340 c-3 -5 -1 -10 4 -10 6 0 11 5 11 10 0 6 -2 10 -4 10 -3 0
-8 -4 -11 -10z"/>
<path d="M2925 1330 c-3 -5 -1 -10 4 -10 6 0 11 5 11 10 0 6 -2 10 -4 10 -3 0
-8 -4 -11 -10z"/>
<path d="M3365 1330 c3 -5 8 -10 11 -10 2 0 4 5 4 10 0 6 -5 10 -11 10 -5 0
-7 -4 -4 -10z"/>
<path d="M3322 1265 c0 -16 2 -22 5 -12 2 9 2 23 0 30 -3 6 -5 -1 -5 -18z"/>
<path d="M2950 1260 c0 -14 -5 -18 -17 -13 -11 4 -14 3 -9 -5 13 -22 36 -13
36 13 0 14 -2 25 -5 25 -3 0 -5 -9 -5 -20z"/>
<path d="M2790 1230 c0 -5 14 -10 31 -10 17 0 28 4 24 10 -3 6 -17 10 -31 10
-13 0 -24 -4 -24 -10z"/>
<path d="M3335 1230 c-3 -5 1 -10 9 -10 8 0 18 5 21 10 3 6 -1 10 -9 10 -8 0
-18 -4 -21 -10z"/>
<path d="M3405 1220 c3 -5 16 -10 28 -10 18 0 19 2 7 10 -20 13 -43 13 -35 0z"/>
<path d="M3480 1210 c0 -5 6 -10 14 -10 8 0 18 5 21 10 3 6 -3 10 -14 10 -12
0 -21 -4 -21 -10z"/>
<path d="M3306 1183 c-6 -14 -5 -15 5 -6 7 7 10 15 7 18 -3 3 -9 -2 -12 -12z"/>
<path d="M2965 1160 c-3 -5 1 -10 10 -10 9 0 13 5 10 10 -3 6 -8 10 -10 10 -2
0 -7 -4 -10 -10z"/>
<path d="M2990 1136 c0 -2 8 -10 18 -17 15 -13 16 -12 3 4 -13 16 -21 21 -21
13z"/>
<path d="M2843 1103 c-24 -14 -43 -28 -43 -33 0 -5 21 3 48 17 58 32 55 30 45
35 -4 3 -27 -6 -50 -19z"/>
<path d="M3251 1111 c-8 -5 -9 -11 -3 -15 5 -3 12 1 16 9 6 17 6 18 -13 6z"/>
<path d="M3385 1100 c3 -5 8 -10 11 -10 2 0 4 5 4 10 0 6 -5 10 -11 10 -5 0
-7 -4 -4 -10z"/>
<path d="M3030 1096 c0 -2 7 -7 16 -10 8 -3 12 -2 9 4 -6 10 -25 14 -25 6z"/>
<path d="M3096 1068 c3 -5 0 -8 -7 -8 -7 0 -10 -2 -8 -4 2 -2 24 0 49 3 l45 7
-42 5 c-23 2 -39 1 -37 -3z"/>
<path d="M2927 1001 c-25 -33 -43 -62 -40 -65 3 -3 26 21 51 55 58 78 49 87
-11 10z"/>
<path d="M3170 1034 c0 -8 5 -12 10 -9 6 3 10 10 10 16 0 5 -4 9 -10 9 -5 0
-10 -7 -10 -16z"/>
<path d="M3297 1012 c16 -22 32 -37 37 -34 5 3 2 10 -7 17 -10 7 -17 17 -17
23 0 6 -9 16 -20 22 -17 9 -16 5 7 -28z"/>
<path d="M3073 1012 c1 -14 5 -18 11 -12 7 7 6 14 -1 21 -9 9 -12 7 -10 -9z"/>
<path d="M3187 994 c-4 -4 -7 -14 -7 -23 0 -11 3 -12 11 -4 6 6 10 16 7 23 -2
6 -7 8 -11 4z"/>
<path d="M3060 970 c0 -5 5 -10 10 -10 6 0 10 5 10 10 0 6 -4 10 -10 10 -5 0
-10 -4 -10 -10z"/>
<path d="M3056 933 c-6 -14 -5 -15 5 -6 7 7 10 15 7 18 -3 3 -9 -2 -12 -12z"/>
<path d="M3190 943 c0 -4 5 -15 10 -23 8 -13 10 -13 10 2 0 9 -4 20 -10 23 -5
3 -10 3 -10 -2z"/>
<path d="M3040 890 c0 -5 5 -10 10 -10 6 0 10 5 10 10 0 6 -4 10 -10 10 -5 0
-10 -4 -10 -10z"/>
<path d="M3200 885 c0 -8 5 -15 10 -15 6 0 10 7 10 15 0 8 -4 15 -10 15 -5 0
-10 -7 -10 -15z"/>
</g>
</svg>
